<mxfile host="app.diagrams.net" modified="2021-03-18T02:07:07.623Z" agent="5.0 (Macintosh; Intel Mac OS X 10_15_7) AppleWebKit/537.36 (KHTML, like Gecko) Chrome/89.0.4389.72 Safari/537.36" etag="cdtjn6T4jab6miA6E8iR" version="14.4.6" type="github">
  <diagram id="WxJmrbj4FMavfr03XEdt" name="Page-1">
    <mxGraphModel dx="1186" dy="764" grid="1" gridSize="10" guides="1" tooltips="1" connect="1" arrows="1" fold="1" page="1" pageScale="1" pageWidth="1169" pageHeight="827" math="0" shadow="0">
      <root>
        <mxCell id="0" />
        <mxCell id="1" parent="0" />
        <mxCell id="lIqp50ITP-52UnrY79w9-13" style="edgeStyle=orthogonalEdgeStyle;rounded=0;orthogonalLoop=1;jettySize=auto;html=1;entryX=0.5;entryY=0;entryDx=0;entryDy=0;" edge="1" parent="1" source="lIqp50ITP-52UnrY79w9-1" target="lIqp50ITP-52UnrY79w9-12">
          <mxGeometry relative="1" as="geometry" />
        </mxCell>
        <mxCell id="lIqp50ITP-52UnrY79w9-1" value="&lt;b&gt;T&lt;/b&gt;&lt;br&gt;(Target &quot;Real&quot; Usage)" style="rounded=0;whiteSpace=wrap;html=1;strokeColor=#b85450;fillColor=#F88A86;" vertex="1" parent="1">
          <mxGeometry x="90" y="130" width="160" height="60" as="geometry" />
        </mxCell>
        <mxCell id="lIqp50ITP-52UnrY79w9-3" value="" style="rounded=0;whiteSpace=wrap;html=1;fillColor=#f8cecc;strokeColor=#b85450;" vertex="1" parent="1">
          <mxGeometry x="700" y="20" width="80" height="30" as="geometry" />
        </mxCell>
        <mxCell id="lIqp50ITP-52UnrY79w9-4" value="User Determined Value" style="text;html=1;strokeColor=none;fillColor=none;align=center;verticalAlign=middle;whiteSpace=wrap;rounded=0;" vertex="1" parent="1">
          <mxGeometry x="560" y="10" width="130" height="50" as="geometry" />
        </mxCell>
        <mxCell id="lIqp50ITP-52UnrY79w9-6" value="" style="rounded=0;whiteSpace=wrap;html=1;fillColor=#dae8fc;strokeColor=#6c8ebf;" vertex="1" parent="1">
          <mxGeometry x="700" y="70" width="80" height="30" as="geometry" />
        </mxCell>
        <mxCell id="lIqp50ITP-52UnrY79w9-7" value="System Determined Value" style="text;html=1;strokeColor=none;fillColor=none;align=center;verticalAlign=middle;whiteSpace=wrap;rounded=0;" vertex="1" parent="1">
          <mxGeometry x="540" y="60" width="150" height="50" as="geometry" />
        </mxCell>
        <mxCell id="lIqp50ITP-52UnrY79w9-8" value="" style="rounded=0;whiteSpace=wrap;html=1;" vertex="1" parent="1">
          <mxGeometry x="700" y="120" width="80" height="30" as="geometry" />
        </mxCell>
        <mxCell id="lIqp50ITP-52UnrY79w9-9" value="Intermediate Value" style="text;html=1;strokeColor=none;fillColor=none;align=center;verticalAlign=middle;whiteSpace=wrap;rounded=0;" vertex="1" parent="1">
          <mxGeometry x="570" y="110" width="130" height="50" as="geometry" />
        </mxCell>
        <mxCell id="lIqp50ITP-52UnrY79w9-14" style="edgeStyle=orthogonalEdgeStyle;rounded=0;orthogonalLoop=1;jettySize=auto;html=1;entryX=0.5;entryY=0;entryDx=0;entryDy=0;" edge="1" parent="1" source="lIqp50ITP-52UnrY79w9-10" target="lIqp50ITP-52UnrY79w9-12">
          <mxGeometry relative="1" as="geometry" />
        </mxCell>
        <mxCell id="lIqp50ITP-52UnrY79w9-10" value="&lt;b&gt;X&lt;/b&gt;&lt;br&gt;(Current &quot;Real&quot; Usage)" style="rounded=0;whiteSpace=wrap;html=1;fillColor=#dae8fc;strokeColor=#6c8ebf;" vertex="1" parent="1">
          <mxGeometry x="300" y="130" width="160" height="60" as="geometry" />
        </mxCell>
        <mxCell id="lIqp50ITP-52UnrY79w9-29" style="edgeStyle=orthogonalEdgeStyle;rounded=0;orthogonalLoop=1;jettySize=auto;html=1;entryX=0;entryY=0.5;entryDx=0;entryDy=0;" edge="1" parent="1" source="lIqp50ITP-52UnrY79w9-12" target="lIqp50ITP-52UnrY79w9-28">
          <mxGeometry relative="1" as="geometry" />
        </mxCell>
        <mxCell id="lIqp50ITP-52UnrY79w9-12" value="&lt;b&gt;S&lt;br&gt;&lt;/b&gt;(Amount of Space Need To Be Filled)" style="rounded=0;whiteSpace=wrap;html=1;" vertex="1" parent="1">
          <mxGeometry x="160" y="280" width="230" height="60" as="geometry" />
        </mxCell>
        <mxCell id="lIqp50ITP-52UnrY79w9-17" value="" style="rhombus;whiteSpace=wrap;html=1;" vertex="1" parent="1">
          <mxGeometry x="255" y="220" width="40" height="40" as="geometry" />
        </mxCell>
        <mxCell id="lIqp50ITP-52UnrY79w9-18" value="Calculation" style="text;html=1;strokeColor=none;fillColor=none;align=center;verticalAlign=middle;whiteSpace=wrap;rounded=0;" vertex="1" parent="1">
          <mxGeometry x="620" y="190" width="40" height="20" as="geometry" />
        </mxCell>
        <mxCell id="lIqp50ITP-52UnrY79w9-20" value="T-X" style="text;html=1;strokeColor=none;fillColor=none;align=center;verticalAlign=middle;whiteSpace=wrap;rounded=0;" vertex="1" parent="1">
          <mxGeometry x="256" y="230" width="40" height="20" as="geometry" />
        </mxCell>
        <mxCell id="lIqp50ITP-52UnrY79w9-27" style="edgeStyle=orthogonalEdgeStyle;rounded=0;orthogonalLoop=1;jettySize=auto;html=1;entryX=0.5;entryY=1;entryDx=0;entryDy=0;" edge="1" parent="1" source="lIqp50ITP-52UnrY79w9-22" target="lIqp50ITP-52UnrY79w9-28">
          <mxGeometry relative="1" as="geometry">
            <mxPoint x="340" y="479.9999999999998" as="targetPoint" />
          </mxGeometry>
        </mxCell>
        <mxCell id="lIqp50ITP-52UnrY79w9-22" value="&lt;b&gt;A.P.S.&lt;/b&gt;&lt;br&gt;(Average Pod Size)" style="rounded=0;whiteSpace=wrap;html=1;fillColor=#dae8fc;strokeColor=#6c8ebf;" vertex="1" parent="1">
          <mxGeometry x="70" y="550" width="160" height="60" as="geometry" />
        </mxCell>
        <mxCell id="lIqp50ITP-52UnrY79w9-23" value="R1 Percentile of All Pods With Required CPU &amp;gt; 0.1" style="text;html=1;strokeColor=none;fillColor=none;align=center;verticalAlign=middle;whiteSpace=wrap;rounded=0;" vertex="1" parent="1">
          <mxGeometry x="10" y="520" width="300" height="20" as="geometry" />
        </mxCell>
        <mxCell id="lIqp50ITP-52UnrY79w9-26" style="edgeStyle=orthogonalEdgeStyle;rounded=0;orthogonalLoop=1;jettySize=auto;html=1;" edge="1" parent="1" source="lIqp50ITP-52UnrY79w9-24" target="lIqp50ITP-52UnrY79w9-22">
          <mxGeometry relative="1" as="geometry" />
        </mxCell>
        <mxCell id="lIqp50ITP-52UnrY79w9-24" value="&lt;b&gt;R1&lt;/b&gt;&lt;br&gt;(Risk Coefficient 1)" style="rounded=0;whiteSpace=wrap;html=1;fillColor=#f8cecc;strokeColor=#b85450;" vertex="1" parent="1">
          <mxGeometry x="70" y="640" width="160" height="60" as="geometry" />
        </mxCell>
        <mxCell id="lIqp50ITP-52UnrY79w9-25" value="Adjust This ratio to adjust the A.P.S" style="text;html=1;strokeColor=none;fillColor=none;align=center;verticalAlign=middle;whiteSpace=wrap;rounded=0;" vertex="1" parent="1">
          <mxGeometry x="30" y="710" width="240" height="20" as="geometry" />
        </mxCell>
        <mxCell id="lIqp50ITP-52UnrY79w9-31" style="edgeStyle=orthogonalEdgeStyle;rounded=0;orthogonalLoop=1;jettySize=auto;html=1;entryX=0;entryY=0.5;entryDx=0;entryDy=0;" edge="1" parent="1" source="lIqp50ITP-52UnrY79w9-28" target="lIqp50ITP-52UnrY79w9-30">
          <mxGeometry relative="1" as="geometry" />
        </mxCell>
        <mxCell id="lIqp50ITP-52UnrY79w9-28" value="S / A.P.S" style="rhombus;whiteSpace=wrap;html=1;" vertex="1" parent="1">
          <mxGeometry x="300" y="410" width="80" height="80" as="geometry" />
        </mxCell>
        <mxCell id="lIqp50ITP-52UnrY79w9-37" style="edgeStyle=orthogonalEdgeStyle;rounded=0;orthogonalLoop=1;jettySize=auto;html=1;entryX=0;entryY=0.5;entryDx=0;entryDy=0;" edge="1" parent="1" source="lIqp50ITP-52UnrY79w9-30" target="lIqp50ITP-52UnrY79w9-34">
          <mxGeometry relative="1" as="geometry" />
        </mxCell>
        <mxCell id="lIqp50ITP-52UnrY79w9-30" value="&lt;b&gt;N&lt;br&gt;&lt;/b&gt;(Approximate Number of Pods could be accepted)" style="rounded=0;whiteSpace=wrap;html=1;" vertex="1" parent="1">
          <mxGeometry x="440" y="420" width="290" height="60" as="geometry" />
        </mxCell>
        <mxCell id="lIqp50ITP-52UnrY79w9-32" value="" style="rhombus;whiteSpace=wrap;html=1;" vertex="1" parent="1">
          <mxGeometry x="710" y="180" width="40" height="40" as="geometry" />
        </mxCell>
        <mxCell id="lIqp50ITP-52UnrY79w9-36" style="edgeStyle=orthogonalEdgeStyle;rounded=0;orthogonalLoop=1;jettySize=auto;html=1;entryX=0.5;entryY=0;entryDx=0;entryDy=0;" edge="1" parent="1" source="lIqp50ITP-52UnrY79w9-33" target="lIqp50ITP-52UnrY79w9-34">
          <mxGeometry relative="1" as="geometry" />
        </mxCell>
        <mxCell id="lIqp50ITP-52UnrY79w9-33" value="&lt;b&gt;O.A.D&lt;/b&gt;&lt;br&gt;(OverAllocate Distribution)" style="rounded=0;whiteSpace=wrap;html=1;fillColor=#dae8fc;strokeColor=#6c8ebf;" vertex="1" parent="1">
          <mxGeometry x="840" y="220" width="190" height="60" as="geometry" />
        </mxCell>
        <mxCell id="lIqp50ITP-52UnrY79w9-53" style="edgeStyle=orthogonalEdgeStyle;rounded=0;orthogonalLoop=1;jettySize=auto;html=1;entryX=0;entryY=0.5;entryDx=0;entryDy=0;" edge="1" parent="1" source="lIqp50ITP-52UnrY79w9-34" target="lIqp50ITP-52UnrY79w9-52">
          <mxGeometry relative="1" as="geometry" />
        </mxCell>
        <mxCell id="lIqp50ITP-52UnrY79w9-34" value="" style="rhombus;whiteSpace=wrap;html=1;" vertex="1" parent="1">
          <mxGeometry x="860" y="375" width="150" height="150" as="geometry" />
        </mxCell>
        <mxCell id="lIqp50ITP-52UnrY79w9-35" value="&lt;meta charset=&quot;utf-8&quot;&gt;&lt;span style=&quot;color: rgb(0, 0, 0); font-family: helvetica; font-size: 12px; font-style: normal; font-weight: 400; letter-spacing: normal; text-align: center; text-indent: 0px; text-transform: none; word-spacing: 0px; background-color: rgb(248, 249, 250); display: inline; float: none;&quot;&gt;Binomial Approximation to N iid distribution&lt;/span&gt;" style="text;html=1;strokeColor=none;fillColor=none;align=center;verticalAlign=middle;whiteSpace=wrap;rounded=0;" vertex="1" parent="1">
          <mxGeometry x="915" y="440" width="40" height="20" as="geometry" />
        </mxCell>
        <mxCell id="lIqp50ITP-52UnrY79w9-51" style="edgeStyle=orthogonalEdgeStyle;rounded=0;orthogonalLoop=1;jettySize=auto;html=1;entryX=0.5;entryY=0;entryDx=0;entryDy=0;" edge="1" parent="1" source="lIqp50ITP-52UnrY79w9-39" target="lIqp50ITP-52UnrY79w9-34">
          <mxGeometry relative="1" as="geometry">
            <Array as="points">
              <mxPoint x="1175" y="310" />
              <mxPoint x="935" y="310" />
            </Array>
          </mxGeometry>
        </mxCell>
        <mxCell id="lIqp50ITP-52UnrY79w9-39" value="&lt;b&gt;A.O.A&lt;br&gt;&lt;/b&gt;(Average OverAllocate)" style="rounded=0;whiteSpace=wrap;html=1;fillColor=#dae8fc;strokeColor=#6c8ebf;" vertex="1" parent="1">
          <mxGeometry x="1080" y="220" width="190" height="60" as="geometry" />
        </mxCell>
        <mxCell id="lIqp50ITP-52UnrY79w9-63" style="edgeStyle=orthogonalEdgeStyle;rounded=0;orthogonalLoop=1;jettySize=auto;html=1;entryX=0.5;entryY=1;entryDx=0;entryDy=0;" edge="1" parent="1" source="lIqp50ITP-52UnrY79w9-43" target="lIqp50ITP-52UnrY79w9-34">
          <mxGeometry relative="1" as="geometry" />
        </mxCell>
        <mxCell id="lIqp50ITP-52UnrY79w9-43" value="&lt;b&gt;R2&lt;/b&gt;&lt;br&gt;(Expected number of Pods to have Higher than R3 O.A Ratio)" style="rounded=0;whiteSpace=wrap;html=1;fillColor=#f8cecc;strokeColor=#b85450;" vertex="1" parent="1">
          <mxGeometry x="700" y="640" width="200" height="60" as="geometry" />
        </mxCell>
        <mxCell id="lIqp50ITP-52UnrY79w9-45" value="" style="rounded=0;whiteSpace=wrap;html=1;fillColor=#d5e8d4;strokeColor=#82b366;" vertex="1" parent="1">
          <mxGeometry x="700" y="240" width="80" height="30" as="geometry" />
        </mxCell>
        <mxCell id="lIqp50ITP-52UnrY79w9-46" value="Output Value" style="text;html=1;strokeColor=none;fillColor=none;align=center;verticalAlign=middle;whiteSpace=wrap;rounded=0;" vertex="1" parent="1">
          <mxGeometry x="585" y="230" width="130" height="50" as="geometry" />
        </mxCell>
        <mxCell id="lIqp50ITP-52UnrY79w9-47" value="" style="rounded=0;whiteSpace=wrap;html=1;strokeColor=#b85450;fillColor=#F88A86;" vertex="1" parent="1">
          <mxGeometry x="740" y="20" width="40" height="30" as="geometry" />
        </mxCell>
        <mxCell id="lIqp50ITP-52UnrY79w9-64" style="edgeStyle=orthogonalEdgeStyle;rounded=0;orthogonalLoop=1;jettySize=auto;html=1;entryX=0.5;entryY=1;entryDx=0;entryDy=0;" edge="1" parent="1" source="lIqp50ITP-52UnrY79w9-48" target="lIqp50ITP-52UnrY79w9-34">
          <mxGeometry relative="1" as="geometry" />
        </mxCell>
        <mxCell id="lIqp50ITP-52UnrY79w9-48" value="&lt;b&gt;R3&lt;/b&gt;&lt;br&gt;(User defined Risk Ratio)" style="rounded=0;whiteSpace=wrap;html=1;fillColor=#f8cecc;strokeColor=#b85450;" vertex="1" parent="1">
          <mxGeometry x="980" y="640" width="200" height="60" as="geometry" />
        </mxCell>
        <mxCell id="lIqp50ITP-52UnrY79w9-60" style="edgeStyle=orthogonalEdgeStyle;rounded=0;orthogonalLoop=1;jettySize=auto;html=1;entryX=0;entryY=0.5;entryDx=0;entryDy=0;" edge="1" parent="1" source="lIqp50ITP-52UnrY79w9-52" target="lIqp50ITP-52UnrY79w9-56">
          <mxGeometry relative="1" as="geometry" />
        </mxCell>
        <mxCell id="lIqp50ITP-52UnrY79w9-62" style="edgeStyle=orthogonalEdgeStyle;rounded=0;orthogonalLoop=1;jettySize=auto;html=1;entryX=0;entryY=0.5;entryDx=0;entryDy=0;" edge="1" parent="1" source="lIqp50ITP-52UnrY79w9-52" target="lIqp50ITP-52UnrY79w9-61">
          <mxGeometry relative="1" as="geometry">
            <mxPoint x="1690" y="535" as="targetPoint" />
            <Array as="points">
              <mxPoint x="1360" y="450" />
              <mxPoint x="1360" y="535" />
            </Array>
          </mxGeometry>
        </mxCell>
        <mxCell id="lIqp50ITP-52UnrY79w9-52" value="Risk Need To Be Bufferd" style="rounded=0;whiteSpace=wrap;html=1;" vertex="1" parent="1">
          <mxGeometry x="1130" y="420" width="170" height="60" as="geometry" />
        </mxCell>
        <mxCell id="lIqp50ITP-52UnrY79w9-54" value="Probability that R2 amount of Pods have O.A Ratio more than R3 Under the assumption that Mean O.A. is A.O.A&amp;nbsp;" style="text;html=1;strokeColor=none;fillColor=none;align=center;verticalAlign=middle;whiteSpace=wrap;rounded=0;" vertex="1" parent="1">
          <mxGeometry x="1100" y="505" width="220" height="20" as="geometry" />
        </mxCell>
        <mxCell id="lIqp50ITP-52UnrY79w9-65" style="edgeStyle=orthogonalEdgeStyle;rounded=0;orthogonalLoop=1;jettySize=auto;html=1;entryX=0;entryY=0.5;entryDx=0;entryDy=0;" edge="1" parent="1" source="lIqp50ITP-52UnrY79w9-55" target="lIqp50ITP-52UnrY79w9-57">
          <mxGeometry relative="1" as="geometry">
            <Array as="points">
              <mxPoint x="1640" y="250" />
              <mxPoint x="1640" y="320" />
            </Array>
          </mxGeometry>
        </mxCell>
        <mxCell id="lIqp50ITP-52UnrY79w9-55" value="&lt;b&gt;Global Safebuffer&lt;/b&gt;&lt;br&gt;(Optional)" style="rounded=0;whiteSpace=wrap;html=1;fillColor=#f8cecc;strokeColor=#b85450;" vertex="1" parent="1">
          <mxGeometry x="1400" y="220" width="200" height="60" as="geometry" />
        </mxCell>
        <mxCell id="lIqp50ITP-52UnrY79w9-66" style="edgeStyle=orthogonalEdgeStyle;rounded=0;orthogonalLoop=1;jettySize=auto;html=1;entryX=0;entryY=0.5;entryDx=0;entryDy=0;" edge="1" parent="1" source="lIqp50ITP-52UnrY79w9-56" target="lIqp50ITP-52UnrY79w9-57">
          <mxGeometry relative="1" as="geometry">
            <Array as="points">
              <mxPoint x="1640" y="370" />
              <mxPoint x="1640" y="320" />
            </Array>
          </mxGeometry>
        </mxCell>
        <mxCell id="lIqp50ITP-52UnrY79w9-56" value="&lt;b&gt;Suggested Safebuffer&lt;/b&gt;" style="rounded=0;whiteSpace=wrap;html=1;fillColor=#d5e8d4;strokeColor=#82b366;" vertex="1" parent="1">
          <mxGeometry x="1420" y="340" width="160" height="60" as="geometry" />
        </mxCell>
        <mxCell id="lIqp50ITP-52UnrY79w9-68" style="edgeStyle=orthogonalEdgeStyle;rounded=0;orthogonalLoop=1;jettySize=auto;html=1;entryX=0;entryY=0.5;entryDx=0;entryDy=0;" edge="1" parent="1" source="lIqp50ITP-52UnrY79w9-57" target="lIqp50ITP-52UnrY79w9-67">
          <mxGeometry relative="1" as="geometry" />
        </mxCell>
        <mxCell id="lIqp50ITP-52UnrY79w9-57" value="&lt;b&gt;Safebuffer&lt;/b&gt;" style="rounded=0;whiteSpace=wrap;html=1;fillColor=#d5e8d4;strokeColor=#82b366;" vertex="1" parent="1">
          <mxGeometry x="1690" y="290" width="160" height="60" as="geometry" />
        </mxCell>
        <mxCell id="lIqp50ITP-52UnrY79w9-69" style="edgeStyle=orthogonalEdgeStyle;rounded=0;orthogonalLoop=1;jettySize=auto;html=1;entryX=0;entryY=0.5;entryDx=0;entryDy=0;" edge="1" parent="1" source="lIqp50ITP-52UnrY79w9-61" target="lIqp50ITP-52UnrY79w9-67">
          <mxGeometry relative="1" as="geometry" />
        </mxCell>
        <mxCell id="lIqp50ITP-52UnrY79w9-61" value="&lt;b&gt;Risk&lt;/b&gt;&lt;br&gt;(Risk that Are Not Covered by Safebuffer)" style="rounded=0;whiteSpace=wrap;html=1;fillColor=#d5e8d4;strokeColor=#82b366;" vertex="1" parent="1">
          <mxGeometry x="1700" y="505" width="150" height="60" as="geometry" />
        </mxCell>
        <mxCell id="lIqp50ITP-52UnrY79w9-67" value="&lt;b&gt;Amount of Saving&lt;/b&gt;" style="rounded=0;whiteSpace=wrap;html=1;fillColor=#d5e8d4;strokeColor=#82b366;" vertex="1" parent="1">
          <mxGeometry x="1920" y="410" width="160" height="60" as="geometry" />
        </mxCell>
      </root>
    </mxGraphModel>
  </diagram>
</mxfile>
